<svg width="25" height="26" viewBox="0 0 25 26" fill="none" xmlns="http://www.w3.org/2000/svg">
<path d="M15.625 10.9167C15.625 10.7785 15.6798 10.646 15.7775 10.5484C15.8752 10.4507 16.0077 10.3958 16.1458 10.3958H17.4479C17.5169 10.3958 17.5832 10.3684 17.632 10.3196C17.6809 10.2707 17.7083 10.2045 17.7083 10.1354C17.7083 10.0663 17.6809 10.0001 17.632 9.95127C17.5832 9.90243 17.5169 9.87499 17.4479 9.87499H16.1458C16.0077 9.87499 15.8752 9.82012 15.7775 9.72244C15.6798 9.62477 15.625 9.49229 15.625 9.35416C15.625 9.21603 15.6798 9.08355 15.7775 8.98587C15.8752 8.8882 16.0077 8.83333 16.1458 8.83333H17.4479C17.5169 8.83333 17.5832 8.80589 17.632 8.75705C17.6809 8.70821 17.7083 8.64198 17.7083 8.57291C17.7083 8.50384 17.6809 8.4376 17.632 8.38877C17.5832 8.33993 17.5169 8.31249 17.4479 8.31249H16.1458C16.0077 8.31249 15.8752 8.25762 15.7775 8.15994C15.6798 8.06227 15.625 7.92979 15.625 7.79166C15.625 7.65353 15.6798 7.52105 15.7775 7.42337C15.8752 7.3257 16.0077 7.27083 16.1458 7.27083H16.6666V6.74999C16.6666 6.61186 16.7215 6.47938 16.8192 6.38171C16.9168 6.28403 17.0493 6.22916 17.1875 6.22916C17.3256 6.22916 17.4581 6.28403 17.5557 6.38171C17.6534 6.47938 17.7083 6.61186 17.7083 6.74999V7.29739C18.0023 7.3574 18.2666 7.51713 18.4564 7.74956C18.6462 7.98198 18.7499 8.27283 18.75 8.57291C18.7491 8.85551 18.6554 9.13 18.4833 9.35416C18.6554 9.57832 18.7491 9.85281 18.75 10.1354C18.7499 10.4355 18.6462 10.7263 18.4564 10.9588C18.2666 11.1912 18.0023 11.3509 17.7083 11.4109V12.9583C18.4939 12.8452 19.2211 12.4789 19.7796 11.9148C20.338 11.3508 20.6971 10.62 20.8024 9.83328C20.9077 9.04659 20.7534 8.24703 20.3629 7.55602C19.9724 6.86501 19.3671 6.32031 18.6389 6.00463C17.9106 5.68895 17.0993 5.61954 16.328 5.80693C15.5567 5.99433 14.8677 6.4283 14.3655 7.04293C13.8633 7.65757 13.5754 8.4193 13.5456 9.21244C13.5157 10.0056 13.7454 10.7868 14.2 11.4375H16.1458C16.0077 11.4375 15.8752 11.3826 15.7775 11.2849C15.6798 11.1873 15.625 11.0548 15.625 10.9167Z" fill="#2364F2"/>
<path d="M17.1868 2.58326C16.1188 2.58211 15.0657 2.83391 14.1137 3.31803C13.1617 3.80216 12.3379 4.50485 11.7097 5.36859C11.0815 6.23233 10.6668 7.23256 10.4995 8.2874C10.3322 9.34224 10.4171 10.4217 10.7472 11.4374H12.9941C12.5512 10.5449 12.4044 9.53434 12.5751 8.55266C12.7458 7.57099 13.2251 6.66931 13.9433 5.97866C14.6615 5.28801 15.5812 4.84436 16.5688 4.71217C17.5564 4.57999 18.5604 4.76617 19.435 5.24364C20.3095 5.72112 21.0091 6.46502 21.4319 7.36726C21.8547 8.26949 21.9789 9.28305 21.7863 10.2607C21.5937 11.2383 21.0943 12.129 20.3609 12.8034C19.6274 13.4778 18.698 13.9008 17.7077 14.0109V16.0984C19.4517 15.9629 21.0755 15.1575 22.2386 13.851C23.4017 12.5444 24.0138 10.8383 23.9464 9.09035C23.879 7.3424 23.1375 5.68842 21.8773 4.47528C20.6171 3.26213 18.9361 2.58406 17.1868 2.58326Z" fill="#2364F2"/>
<path d="M11.9785 12.479H16.1452C16.2833 12.479 16.4158 12.5338 16.5135 12.6315C16.6111 12.7292 16.666 12.8617 16.666 12.9998V14.5623H13.541C13.1266 14.5623 12.7292 14.3977 12.4362 14.1047C12.1431 13.8116 11.9785 13.4142 11.9785 12.9998V12.479ZM16.666 15.604H14.0618V19.7706H16.666V15.604ZM1.04102 15.604V19.7706H3.64518V15.604H1.04102ZM13.0202 19.8227C12.4323 19.9435 11.9041 20.2633 11.5246 20.7282C11.1451 21.1931 10.9375 21.7747 10.9368 22.3748V22.8956H6.77018V22.3748C6.76952 21.7747 6.56193 21.1931 6.18243 20.7282C5.80292 20.2633 5.2747 19.9435 4.68685 19.8227V15.5519C5.2747 15.4311 5.80292 15.1113 6.18243 14.6464C6.56193 14.1815 6.76952 13.5999 6.77018 12.9998V12.479H10.9368V12.9998C10.9375 13.5999 11.1451 14.1815 11.5246 14.6464C11.9041 15.1113 12.4323 15.4311 13.0202 15.5519V19.8227ZM8.33268 16.8837C8.33282 16.8205 8.35801 16.7599 8.40273 16.7153C8.44745 16.6707 8.50805 16.6456 8.57122 16.6456H9.89518C10.0333 16.6456 10.1658 16.5908 10.2635 16.4931C10.3611 16.3954 10.416 16.2629 10.416 16.1248C10.416 15.9867 10.3611 15.8542 10.2635 15.7565C10.1658 15.6588 10.0333 15.604 9.89518 15.604H9.37435V15.0831C9.37435 14.945 9.31948 14.8125 9.2218 14.7149C9.12413 14.6172 8.99165 14.5623 8.85352 14.5623C8.71538 14.5623 8.58291 14.6172 8.48523 14.7149C8.38756 14.8125 8.33268 14.945 8.33268 15.0831V15.6279C8.03386 15.6882 7.76577 15.8517 7.57534 16.0898C7.3849 16.3278 7.28426 16.6252 7.29102 16.93C7.29143 17.2689 7.42622 17.5937 7.66583 17.8333C7.90543 18.0729 8.23029 18.2077 8.56914 18.2081H9.13789C9.17259 18.2099 9.20655 18.2189 9.23762 18.2344C9.26868 18.25 9.29619 18.2718 9.31841 18.2985C9.34062 18.3253 9.35706 18.3563 9.36669 18.3897C9.37632 18.4231 9.37893 18.4581 9.37435 18.4925C9.37421 18.5552 9.34925 18.6152 9.30494 18.6596C9.26062 18.7039 9.20056 18.7288 9.13789 18.729H7.81185C7.67372 18.729 7.54124 18.7838 7.44356 18.8815C7.34589 18.9792 7.29102 19.1117 7.29102 19.2498C7.29102 19.3879 7.34589 19.5204 7.44356 19.6181C7.54124 19.7158 7.67372 19.7706 7.81185 19.7706H8.33268V20.2915C8.33268 20.4296 8.38756 20.5621 8.48523 20.6598C8.58291 20.7574 8.71538 20.8123 8.85352 20.8123C8.99165 20.8123 9.12413 20.7574 9.2218 20.6598C9.31948 20.5621 9.37435 20.4296 9.37435 20.2915V19.7467C9.67336 19.6868 9.94168 19.5234 10.1322 19.2852C10.3227 19.0471 10.4232 18.7495 10.416 18.4446C10.4156 18.1057 10.2808 17.7809 10.0412 17.5413C9.8016 17.3017 9.47674 17.1669 9.13789 17.1665H8.56914C8.53459 17.1648 8.50075 17.156 8.46976 17.1406C8.43877 17.1253 8.41131 17.1036 8.38909 17.0771C8.36688 17.0506 8.3504 17.0198 8.34069 16.9866C8.33098 16.9533 8.32826 16.918 8.33268 16.8837ZM13.541 20.8123C13.1266 20.8123 12.7292 20.9769 12.4362 21.27C12.1431 21.563 11.9785 21.9604 11.9785 22.3748V22.8956H16.1452C16.2833 22.8956 16.4158 22.8408 16.5135 22.7431C16.6111 22.6454 16.666 22.5129 16.666 22.3748V20.8123H13.541ZM5.72852 22.3748C5.72852 21.9604 5.5639 21.563 5.27087 21.27C4.97784 20.9769 4.58042 20.8123 4.16602 20.8123H1.04102V22.3748C1.04102 22.5129 1.09589 22.6454 1.19356 22.7431C1.29124 22.8408 1.42372 22.8956 1.56185 22.8956H5.72852V22.3748ZM4.16602 14.5623C4.58042 14.5623 4.97784 14.3977 5.27087 14.1047C5.5639 13.8116 5.72852 13.4142 5.72852 12.9998V12.479H1.56185C1.42372 12.479 1.29124 12.5338 1.19356 12.6315C1.09589 12.7292 1.04102 12.8617 1.04102 12.9998V14.5623H4.16602ZM9.37435 9.35398C9.37632 8.46625 9.53046 7.58544 9.83008 6.74981H7.81185V5.88679C7.81189 5.79152 7.7858 5.69806 7.73642 5.61659C7.68704 5.53512 7.61625 5.46875 7.53177 5.42471C7.44729 5.38067 7.35235 5.36065 7.25728 5.36682C7.16221 5.37299 7.07066 5.40511 6.99258 5.4597L3.52539 7.88575C3.45684 7.93378 3.40087 7.99762 3.36222 8.07188C3.32358 8.14613 3.30341 8.2286 3.30341 8.31231C3.30341 8.39601 3.32358 8.47849 3.36222 8.55274C3.40087 8.62699 3.45684 8.69084 3.52539 8.73887L6.99258 11.1649C7.07066 11.2195 7.16221 11.2516 7.25728 11.2578C7.35235 11.264 7.44729 11.2439 7.53177 11.1999C7.61625 11.1559 7.68704 11.0895 7.73642 11.008C7.7858 10.9266 7.81189 10.8331 7.81185 10.7378V9.87481H9.40091C9.38945 9.70189 9.37435 9.53002 9.37435 9.35398ZM23.5566 19.3441L20.0895 16.918C20.0114 16.8634 19.9198 16.8313 19.8247 16.8251C19.7297 16.819 19.6347 16.839 19.5503 16.883C19.4658 16.9271 19.395 16.9934 19.3456 17.0749C19.2962 17.1564 19.2701 17.2498 19.2702 17.3451V18.2081H17.7077V21.3331H19.2702V22.1962C19.2701 22.2914 19.2962 22.3849 19.3456 22.4664C19.395 22.5478 19.4658 22.6142 19.5503 22.6582C19.6347 22.7023 19.7297 22.7223 19.8247 22.7161C19.9198 22.71 20.0114 22.6778 20.0895 22.6232L23.5566 20.1972C23.6252 20.1492 23.6812 20.0853 23.7198 20.0111C23.7584 19.9368 23.7786 19.8543 23.7786 19.7706C23.7786 19.6869 23.7584 19.6045 23.7198 19.5302C23.6812 19.456 23.6252 19.3921 23.5566 19.3441Z" fill="#2364F2"/>
</svg>
