<svg width="25" height="26" viewBox="0 0 25 26" fill="none" xmlns="http://www.w3.org/2000/svg">
<g clip-path="url(#clip0_1110_2308)">
<path d="M12.0117 3.57617C12.4162 3.57617 12.7441 3.24824 12.7441 2.84375V1.23242C12.7441 0.82793 12.4162 0.5 12.0117 0.5C11.6072 0.5 11.2793 0.82793 11.2793 1.23242V2.84375C11.2793 3.24824 11.6072 3.57617 12.0117 3.57617ZM7.00757 3.83916L8.24189 4.8749C8.55376 5.13657 9.01538 5.09248 9.27373 4.78462C9.53374 4.47476 9.49336 4.01279 9.18345 3.75278L7.94912 2.71704C7.63916 2.45698 7.17725 2.49746 6.91729 2.80732C6.65728 3.11714 6.69766 3.57915 7.00757 3.83916ZM15.7815 4.8749L17.0159 3.83916C17.3258 3.57915 17.3662 3.11714 17.1062 2.80732C16.8462 2.49746 16.3841 2.45703 16.0743 2.71704L14.84 3.75278C14.5301 4.01279 14.4897 4.4748 14.7497 4.78462C15.0089 5.09355 15.4708 5.13564 15.7815 4.8749ZM5.41992 19.5918H8.34961V21.0566H5.41992V19.5918Z" fill="#2364F2"/>
<path d="M18.0856 20.8421L15.8884 18.6448C15.6023 18.3588 15.6023 17.8951 15.8884 17.609L18.0856 15.4118C18.223 15.2744 18.4093 15.1973 18.6035 15.1973H22.998V13.0488C22.998 11.8373 22.0124 10.8516 20.8008 10.8516H2.6123C2.0523 10.8522 1.50305 10.6978 1.02539 10.4055V22.5703C1.02539 24.1857 2.33965 25.5 3.95508 25.5H20.8008C22.0295 25.5 22.998 24.4915 22.998 23.3177V21.0566H18.6035C18.5073 21.0566 18.4121 21.0377 18.3232 21.0009C18.2344 20.9641 18.1536 20.9101 18.0856 20.8421ZM9.81445 21.7891C9.81445 22.1936 9.48652 22.5215 9.08203 22.5215H4.6875C4.28301 22.5215 3.95508 22.1936 3.95508 21.7891V18.8594C3.95508 18.4549 4.28301 18.127 4.6875 18.127H9.08203C9.48652 18.127 9.81445 18.4549 9.81445 18.8594V21.7891Z" fill="#2364F2"/>
<path d="M18.9069 16.6621L17.442 18.127L18.9069 19.5918H23.9746V16.6621H18.9069ZM2.6123 9.38672H21.5332V8.41016C21.5332 7.19663 20.5495 6.21289 19.3359 6.21289H2.6123C1.73589 6.21289 1.02539 6.92339 1.02539 7.7998C1.02539 8.67622 1.73589 9.38672 2.6123 9.38672Z" fill="#2364F2"/>
</g>
<defs>
<clipPath id="clip0_1110_2308">
<rect width="25" height="25" fill="white" transform="translate(0 0.5)"/>
</clipPath>
</defs>
</svg>
