<svg width="25" height="26" viewBox="0 0 25 26" fill="none" xmlns="http://www.w3.org/2000/svg">
<path d="M14.0625 16.125C14.0625 16.5562 13.7117 16.9062 13.2812 16.9062H11.7188V15.3438H13.2812C13.7117 15.3438 14.0625 15.6938 14.0625 16.125ZM13.2812 12.2188H11.7188V13.7812H13.2812C13.4824 13.7723 13.6723 13.686 13.8115 13.5405C13.9507 13.395 14.0283 13.2014 14.0283 13C14.0283 12.7986 13.9507 12.605 13.8115 12.4595C13.6723 12.314 13.4824 12.2277 13.2812 12.2188ZM24.2188 8.3125V20.8125C24.2188 22.1016 23.1641 23.1562 21.875 23.1562H3.125C1.83594 23.1562 0.78125 22.1016 0.78125 20.8125V6.75C0.78125 4.59375 2.53125 2.84375 4.6875 2.84375H18.75C19.2336 2.84511 19.7048 2.996 20.0993 3.27573C20.4937 3.55547 20.7919 3.95035 20.9531 4.40625H4.6875V5.96875H21.875C23.1641 5.96875 24.2188 7.02344 24.2188 8.3125ZM15.0156 14.5625C15.3906 14.1469 15.625 13.6023 15.625 13C15.625 11.7078 14.5734 10.6562 13.2812 10.6562V9.875H11.7188V10.6562H9.375V12.2188H10.1562V16.9062H9.375V18.4688H11.7188V19.25H13.2812V18.4688C14.5734 18.4688 15.625 17.4172 15.625 16.125C15.625 15.5227 15.3906 14.9781 15.0156 14.5625ZM21.0938 14.5625C21.0938 13.7 20.393 13 19.5312 13C18.6695 13 17.9688 13.7 17.9688 14.5625C17.9688 15.425 18.6695 16.125 19.5312 16.125C20.393 16.125 21.0938 15.425 21.0938 14.5625Z" fill="#2364F2"/>
</svg>
