<svg width="25" height="26" viewBox="0 0 25 26" fill="none" xmlns="http://www.w3.org/2000/svg">
<path d="M15.3537 8.55637C15.5653 8.30818 15.7475 8.03632 15.8966 7.74621H17.3548C17.916 7.74652 18.459 7.94499 18.8881 8.30661C19.3172 8.66824 19.6048 9.16978 19.7001 9.72277H18.874C18.7843 9.38825 18.5868 9.09264 18.3121 8.88176C18.0374 8.67088 17.7008 8.55651 17.3544 8.55637H15.3537ZM23.1759 15.5642V17.6587C23.1755 17.9351 23.0658 18.2001 22.8708 18.3959C22.6758 18.5917 22.4113 18.7025 22.1349 18.704H18.8537C18.4991 18.704 18.159 18.5632 17.9083 18.3125C17.6576 18.0617 17.5168 17.7217 17.5168 17.3671C17.5168 17.0125 17.6576 16.6725 17.9083 16.4218C18.159 16.1711 18.4991 16.0302 18.8537 16.0302H21.8392C22.3247 16.0309 22.796 15.8664 23.1759 15.5642ZM18.9994 16.9622C18.8919 16.9622 18.7889 17.0049 18.7129 17.0809C18.637 17.1568 18.5943 17.2599 18.5943 17.3673C18.5943 17.4747 18.637 17.5778 18.7129 17.6537C18.7889 17.7297 18.8919 17.7724 18.9994 17.7724C19.1068 17.7724 19.2098 17.7297 19.2858 17.6537C19.3618 17.5778 19.4044 17.4747 19.4044 17.3673C19.4044 17.2599 19.3618 17.1568 19.2858 17.0809C19.2098 17.0049 19.1068 16.9622 18.9994 16.9622ZM16.7064 17.363C16.7099 16.795 16.9374 16.2513 17.3394 15.85C17.7415 15.4488 18.2856 15.2224 18.8537 15.22H21.8392C21.9527 15.22 22.0656 15.205 22.1751 15.1755C22.1751 15.1755 22.1751 12.64 22.1712 12.5872C22.1284 12.0302 21.8775 11.5097 21.4684 11.1291C21.0594 10.7486 20.5221 10.5359 19.9634 10.5333H3.38765C2.46069 10.5208 2.37241 8.62551 3.38765 8.55676H8.5646C8.35302 8.30753 8.16962 8.0357 8.01773 7.74621H3.38765C2.37007 7.74426 1.73843 8.83488 1.83608 9.79191V21.4064C1.83608 22.804 2.82827 23.938 4.0521 23.938H19.9638C21.1834 23.938 22.1759 22.804 22.1759 21.4064V19.5146H18.8541C18.5718 19.5143 18.2924 19.4585 18.0318 19.3502C17.7712 19.242 17.5344 19.0834 17.335 18.8837C17.1357 18.6839 16.9776 18.4468 16.8699 18.186C16.7622 17.9251 16.7069 17.6456 16.7072 17.3634L16.7064 17.363ZM15.5884 5.69543C15.5767 9.19621 11.1029 10.6243 9.04155 7.8634C7.26382 5.54543 9.00913 2.02121 11.9595 2.06262C12.9221 2.06427 13.8448 2.44767 14.5251 3.12871C15.2054 3.80975 15.5878 4.73282 15.5884 5.69543ZM12.3189 3.67199V3.40246C12.3189 3.30715 12.281 3.21574 12.2136 3.14834C12.1462 3.08095 12.0548 3.04309 11.9595 3.04309C11.8642 3.04309 11.7728 3.08095 11.7054 3.14834C11.638 3.21574 11.6001 3.30715 11.6001 3.40246V3.67199C11.3712 3.6978 11.1596 3.80669 11.0056 3.97803C10.8515 4.14937 10.7656 4.37127 10.7642 4.60168V5.12121C10.7639 5.24441 10.7879 5.36646 10.8349 5.48034C10.8819 5.59423 10.951 5.6977 11.0381 5.78481C11.1252 5.87193 11.2287 5.94097 11.3426 5.98798C11.4565 6.03498 11.5785 6.05902 11.7017 6.05871H12.2173C12.5345 6.06496 12.4021 6.50559 12.4283 6.78527C12.4288 6.8133 12.4237 6.84115 12.4134 6.8672C12.403 6.89324 12.3875 6.91696 12.3679 6.93696C12.3482 6.95696 12.3248 6.97285 12.299 6.9837C12.2731 6.99454 12.2454 7.00012 12.2173 7.00012C11.9462 6.97395 11.4927 7.10793 11.4869 6.78527V6.52746H10.7642C10.7366 6.6612 10.7366 6.79917 10.7641 6.93292C10.7917 7.06667 10.8463 7.19338 10.9246 7.30529C11.0028 7.4172 11.1031 7.51195 11.2193 7.58374C11.3354 7.65553 11.465 7.70284 11.6001 7.72277V7.9884C11.6001 8.08371 11.638 8.17512 11.7054 8.24252C11.7728 8.30991 11.8642 8.34777 11.9595 8.34777C12.0548 8.34777 12.1462 8.30991 12.2136 8.24252C12.281 8.17512 12.3189 8.08371 12.3189 7.9884V7.72277C12.5481 7.69502 12.7593 7.58436 12.9125 7.41167C13.0658 7.23897 13.1506 7.01617 13.1509 6.78527V6.26574C13.1501 6.01875 13.0514 5.78217 12.8763 5.60789C12.7013 5.4336 12.4643 5.33585 12.2173 5.33606C11.9459 5.31027 11.4923 5.44309 11.4869 5.12121C11.5126 4.83996 11.3798 4.39738 11.7017 4.39074C11.9755 4.41652 12.4205 4.28527 12.4283 4.60168V4.8634H13.1509C13.1786 4.73017 13.1788 4.59269 13.1515 4.45939C13.1241 4.32609 13.0698 4.19978 12.9919 4.08822C12.914 3.97666 12.8141 3.88219 12.6984 3.81061C12.5827 3.73904 12.4535 3.69187 12.3189 3.67199Z" fill="#2364F2"/>
</svg>
