<svg width="25" height="26" viewBox="0 0 25 26" fill="none" xmlns="http://www.w3.org/2000/svg">
<path d="M8.50513 4.24223H12.0973C12.2669 4.23929 12.4314 4.18458 12.569 4.08543C12.7065 3.98629 12.8105 3.84745 12.8669 3.68754L13.4719 2.09887C13.5895 2.02075 7.09732 2.0977 7.1192 2.07153C7.1231 2.07934 7.73599 3.68793 7.73599 3.68793C7.79238 3.84784 7.89632 3.98668 8.03387 4.08582C8.17141 4.18497 8.33599 4.23968 8.50552 4.24262L8.50513 4.24223Z" fill="#2364F2"/>
<path d="M10.6453 18.1079C10.2463 18.1068 9.86391 17.9476 9.58207 17.6651C9.30023 17.3826 9.1419 16.9999 9.1418 16.6008C9.13984 15.5684 9.14336 8.9063 9.1418 8.04146C9.14273 7.64302 9.30144 7.26117 9.58322 6.97947C9.86499 6.69777 10.2469 6.53916 10.6453 6.53833C10.6453 6.53833 17.1691 6.53755 17.5566 6.53833V4.41411C17.5561 3.79291 17.3091 3.19731 16.8698 2.75809C16.4305 2.31887 15.8349 2.07195 15.2137 2.07153H14.1906C14.0791 2.60449 13.9222 3.12695 13.7219 3.63325C13.6479 4.01428 13.447 4.35904 13.1521 4.6114C12.8572 4.86377 12.4855 5.00887 12.0977 5.0231H8.50547C8.17747 5.02089 7.85801 4.91835 7.59 4.72925C7.322 4.54016 7.11829 4.27356 7.00625 3.96528C6.91367 3.72231 6.28555 2.24692 6.4125 2.07153H5.38945C4.76832 2.07205 4.17278 2.31902 3.73357 2.75823C3.29437 3.19744 3.04739 3.79298 3.04688 4.41411V21.5946C3.04729 22.2158 3.29422 22.8114 3.73343 23.2507C4.17265 23.69 4.76825 23.937 5.38945 23.9375H15.2137C15.8349 23.9371 16.4306 23.6902 16.8699 23.2509C17.3092 22.8116 17.5562 22.2158 17.5566 21.5946V18.1079C17.1648 18.104 10.6453 18.1079 10.6453 18.1079ZM11.6449 21.7938H8.95469C8.85328 21.7906 8.75709 21.7481 8.68649 21.6752C8.61589 21.6023 8.57641 21.5048 8.57641 21.4034C8.57641 21.3019 8.61589 21.2044 8.68649 21.1316C8.75709 21.0587 8.85328 21.0161 8.95469 21.0129H11.6449C11.7485 21.0129 11.8479 21.0541 11.9211 21.1274C11.9944 21.2006 12.0355 21.3 12.0355 21.4036C12.0355 21.5072 11.9944 21.6065 11.9211 21.6798C11.8479 21.753 11.7485 21.7938 11.6449 21.7938Z" fill="#2364F2"/>
<path d="M9.92227 16.6007C9.92201 16.6958 9.94049 16.7901 9.97664 16.878C10.0128 16.966 10.0659 17.046 10.133 17.1134C10.2001 17.1808 10.2798 17.2344 10.3675 17.271C10.4553 17.3077 10.5494 17.3267 10.6445 17.3269H21.2258C21.3213 17.3271 21.4158 17.3085 21.5041 17.272C21.5923 17.2356 21.6725 17.1821 21.74 17.1146C21.8075 17.0471 21.861 16.9669 21.8975 16.8786C21.9339 16.7904 21.9525 16.6958 21.9523 16.6003V9.43198H9.92188L9.92227 16.6007ZM16.2906 10.0601C16.9468 10.0609 17.5881 10.2562 18.1333 10.6213C18.6786 10.9864 19.1033 11.505 19.3539 12.1114C19.6045 12.7179 19.6697 13.3851 19.5413 14.0286C19.4128 14.6721 19.0964 15.2631 18.6322 15.7268C18.1679 16.1906 17.5766 16.5063 16.933 16.6341C16.2893 16.7619 15.6223 16.696 15.0161 16.4447C14.4099 16.1935 13.8917 15.7682 13.5272 15.2225C13.1627 14.6769 12.968 14.0355 12.968 13.3793C12.9681 12.9431 13.0542 12.5113 13.2213 12.1084C13.3883 11.7056 13.6332 11.3396 13.9417 11.0314C14.2503 10.7231 14.6165 10.4787 15.0195 10.3121C15.4226 10.1454 15.8545 10.0598 16.2906 10.0601ZM21.2262 7.31909C19.9574 7.31988 10.6441 7.31909 10.6441 7.31909C10.4526 7.3194 10.2691 7.39567 10.1338 7.53115C9.99843 7.66662 9.92237 7.85026 9.92227 8.04175V8.65073H21.9523V8.04136C21.9521 7.94625 21.9331 7.85213 21.8965 7.76436C21.8598 7.67659 21.8063 7.5969 21.7388 7.52983C21.6714 7.46276 21.5914 7.40963 21.5035 7.37347C21.4155 7.33732 21.3213 7.31884 21.2262 7.31909Z" fill="#2364F2"/>
<path d="M16.2918 15.9172C16.9641 15.9157 17.6084 15.6478 18.0834 15.172C18.5584 14.6963 18.8254 14.0516 18.8258 13.3793C18.7008 10.0125 13.8754 10.0211 13.75 13.3793C13.7516 14.0526 14.02 14.6978 14.4964 15.1735C14.9729 15.6492 15.6185 15.9167 16.2918 15.9172ZM15.9051 11.5988C15.9113 11.5005 15.9548 11.4083 16.0266 11.3409C16.0985 11.2734 16.1933 11.2359 16.2918 11.2359C16.3903 11.2359 16.4851 11.2734 16.557 11.3409C16.6288 11.4083 16.6723 11.5005 16.6785 11.5988C17.1445 11.7227 17.7816 12.6352 17.0887 12.8754C17.0386 12.8865 16.9869 12.8877 16.9364 12.8788C16.886 12.8699 16.8377 12.8511 16.7946 12.8236C16.7514 12.796 16.714 12.7601 16.6847 12.7181C16.6554 12.676 16.6347 12.6286 16.6238 12.5785C16.6105 12.5157 16.5797 12.4579 16.5349 12.4119C16.4902 12.3658 16.4333 12.3334 16.3708 12.3184C16.3084 12.3034 16.243 12.3064 16.1821 12.327C16.1213 12.3476 16.0676 12.3851 16.0272 12.435C15.9868 12.4849 15.9614 12.5453 15.9538 12.609C15.9463 12.6728 15.957 12.7374 15.9847 12.7954C16.0124 12.8533 16.0559 12.9022 16.1103 12.9364C16.1646 12.9706 16.2276 12.9888 16.2918 12.9887C16.5534 12.9911 16.806 13.0849 17.0058 13.2538C17.2056 13.4227 17.3401 13.6562 17.386 13.9138C17.4318 14.1714 17.3863 14.4369 17.2571 14.6644C17.1279 14.8919 16.9232 15.0672 16.6785 15.1598C16.6723 15.2581 16.6288 15.3503 16.557 15.4177C16.4851 15.4852 16.3903 15.5227 16.2918 15.5227C16.1933 15.5227 16.0985 15.4852 16.0266 15.4177C15.9548 15.3503 15.9113 15.2581 15.9051 15.1598C15.4559 15.0359 14.8355 14.2105 15.4793 13.9375C15.5787 13.9087 15.6856 13.9205 15.7763 13.9703C15.8671 14.0201 15.9345 14.1038 15.9637 14.2031C15.981 14.2639 16.015 14.3187 16.0617 14.3613C16.1085 14.4039 16.1661 14.4326 16.2283 14.4442C16.2904 14.4558 16.3546 14.4499 16.4136 14.4271C16.4725 14.4043 16.524 14.3655 16.5622 14.3151C16.6003 14.2647 16.6237 14.2046 16.6296 14.1417C16.6355 14.0787 16.6238 14.0153 16.5957 13.9587C16.5676 13.902 16.5243 13.8543 16.4706 13.8209C16.417 13.7875 16.355 13.7697 16.2918 13.7695C16.0303 13.7669 15.778 13.673 15.5784 13.5041C15.3788 13.3352 15.2445 13.1019 15.1986 12.8445C15.1528 12.5871 15.1983 12.3217 15.3273 12.0943C15.4562 11.8668 15.6606 11.6916 15.9051 11.5988Z" fill="#2364F2"/>
</svg>
