<svg width="25" height="26" viewBox="0 0 25 26" fill="none" xmlns="http://www.w3.org/2000/svg">
<path d="M12.501 1.28102C10.8319 1.27824 9.18164 1.63317 7.66131 2.32189C7.61343 2.3437 7.57043 2.37495 7.53491 2.41376C7.49938 2.45257 7.47205 2.49815 7.45454 2.54777C7.43704 2.59739 7.42972 2.65003 7.43303 2.70255C7.43634 2.75506 7.45021 2.80637 7.4738 2.8534L8.17215 4.25155C8.21736 4.34194 8.29579 4.41132 8.39101 4.44518C8.48624 4.47903 8.59086 4.47472 8.68298 4.43315C9.88453 3.89794 11.1856 3.62273 12.501 3.62556C14.2031 3.62489 15.8733 4.08799 17.332 4.96513C18.7907 5.84226 19.9829 7.10026 20.7805 8.60398C21.578 10.1077 21.9508 11.8003 21.8588 13.5C21.7667 15.1996 21.2133 16.842 20.258 18.2508L19.0267 17.0195C18.972 16.965 18.9024 16.9279 18.8266 16.9129C18.7509 16.8979 18.6724 16.9057 18.601 16.9352C18.5297 16.9647 18.4687 17.0147 18.4257 17.0788C18.3826 17.143 18.3596 17.2184 18.3594 17.2956V21.5919C18.3594 21.809 18.5336 21.9847 18.7491 21.9847H23.0455C23.123 21.9847 23.1988 21.9618 23.2632 21.9187C23.3277 21.8756 23.3779 21.8144 23.4075 21.7427C23.437 21.6711 23.4447 21.5922 23.4294 21.5162C23.4141 21.4402 23.3766 21.3705 23.3216 21.3159L21.9382 19.931C23.4205 17.9239 24.22 15.4944 24.2192 12.9993C24.2169 9.89225 22.9815 6.91318 20.7843 4.71633C18.5872 2.51948 15.608 1.28298 12.501 1.28102ZM1.95204 4.01385C1.8747 4.01378 1.79907 4.03664 1.73471 4.07953C1.67035 4.12243 1.62015 4.18343 1.59045 4.25485C1.56075 4.32626 1.55288 4.40487 1.56783 4.48075C1.58279 4.55664 1.6199 4.62639 1.67448 4.68119L3.06082 6.06606C1.57885 8.07376 0.779868 10.5038 0.781252 12.9993C0.782785 14.9586 1.27528 16.8863 2.21374 18.6063C3.1522 20.3263 4.50671 21.7836 6.1535 22.8453C7.80029 23.9069 9.68687 24.539 11.6409 24.6837C13.5948 24.8284 15.5539 24.4812 17.3392 23.6737C17.3869 23.6519 17.4297 23.6207 17.4651 23.582C17.5005 23.5433 17.5277 23.4978 17.5452 23.4484C17.5627 23.3989 17.5701 23.3465 17.5669 23.2941C17.5637 23.2418 17.55 23.1906 17.5267 23.1437L16.8254 21.7455C16.7802 21.6562 16.7025 21.5876 16.6083 21.5538C16.5141 21.5201 16.4106 21.5237 16.319 21.5639C15.1176 22.1001 13.8165 22.3763 12.501 22.3744C10.798 22.3763 9.12671 21.9139 7.66688 21.0369C6.20705 20.16 5.01389 18.9016 4.21571 17.3973C3.41753 15.8929 3.04452 14.1995 3.13681 12.499C3.22911 10.7985 3.7832 9.15534 4.7395 7.74621L5.97525 8.97901C6.03011 9.0325 6.09946 9.06871 6.17471 9.08314C6.24996 9.09758 6.32779 9.0896 6.39855 9.06019C6.4693 9.03079 6.52986 8.98126 6.57272 8.91775C6.61558 8.85423 6.63885 8.77954 6.63964 8.70292V4.40657C6.63983 4.35507 6.62985 4.30404 6.61028 4.2564C6.5907 4.20876 6.56191 4.16545 6.52556 4.12897C6.48921 4.09248 6.44602 4.06353 6.39845 4.04377C6.35089 4.02402 6.29989 4.01385 6.24839 4.01385H1.95204ZM12.4995 6.74816C9.05208 6.74816 6.25134 9.55333 6.25134 13.0007C6.25134 16.4481 9.05208 19.2489 12.4995 19.2489C15.9469 19.2489 18.7521 16.4481 18.7521 13.0007C18.7521 9.55333 15.9469 6.74816 12.4995 6.74816ZM12.4995 8.30872C12.6929 8.30872 12.8893 8.43864 12.8893 8.69997V9.52675C13.33 9.61763 13.726 9.85745 14.0107 10.2059C14.2954 10.5543 14.4515 10.9902 14.4528 11.4402C14.4646 11.9717 13.6585 11.9717 13.6703 11.4402C13.6703 10.7891 13.1521 10.2694 12.4995 10.2694C11.8469 10.2694 11.3287 10.7891 11.3287 11.4402C11.3287 12.0913 11.8484 12.611 12.4995 12.611C13.5743 12.611 14.4528 13.4924 14.4528 14.5657C14.4528 15.5077 13.7781 16.2976 12.8878 16.4792V17.3C12.8878 17.8212 12.1082 17.8212 12.1082 17.3V16.4792C11.6681 16.3877 11.2728 16.1476 10.9886 15.7992C10.7045 15.4508 10.5488 15.0153 10.5477 14.5657C10.5595 14.0564 11.3169 14.0564 11.3302 14.5657C11.3302 15.2183 11.8469 15.7365 12.4995 15.7365C13.1521 15.7365 13.6703 15.2183 13.6703 14.5657C13.6703 13.9132 13.1521 13.392 12.4995 13.392C11.9823 13.3904 11.4868 13.1843 11.1211 12.8186C10.7554 12.4529 10.5492 11.9573 10.5477 11.4402C10.5477 10.4997 11.2195 9.7113 12.1082 9.52823V8.69997C12.1082 8.43864 12.3046 8.30872 12.4995 8.30872Z" fill="#2364F2"/>
</svg>
