<svg width="20" height="20" viewBox="0 0 20 20" fill="none" xmlns="http://www.w3.org/2000/svg">
<g clip-path="url(#clip0_1110_2333)">
<path d="M19.4141 7.85156H18.524C18.3163 7.02111 17.9869 6.22595 17.5464 5.49191L18.1759 4.86242C18.4048 4.63359 18.4048 4.26262 18.1759 4.03379L15.9662 1.82406C15.7374 1.59523 15.3664 1.59523 15.1376 1.82406L14.5081 2.45355C13.7741 2.01311 12.9789 1.68368 12.1484 1.47598V0.585938C12.1484 0.262344 11.8861 0 11.5625 0H8.4375C8.11391 0 7.85156 0.262344 7.85156 0.585938V1.47598C7.0211 1.68366 6.22594 2.01309 5.49191 2.45355L4.86242 1.82406C4.63359 1.59523 4.26262 1.59523 4.03379 1.82406L1.8241 4.03379C1.59527 4.26262 1.59527 4.63359 1.8241 4.86242L2.45355 5.49191C2.0131 6.22594 1.68367 7.0211 1.47598 7.85156H0.585938C0.262344 7.85156 0 8.11391 0 8.4375V11.5625C0 11.8861 0.262344 12.1484 0.585938 12.1484H1.47598C1.68367 12.9789 2.0131 13.7741 2.45355 14.5081L1.82406 15.1376C1.59523 15.3664 1.59523 15.7374 1.82406 15.9662L4.03375 18.1759C4.26258 18.4047 4.63355 18.4047 4.86238 18.1759L5.49187 17.5464C6.22592 17.9868 7.02107 18.3162 7.85152 18.5239V19.4141C7.85152 19.7377 8.11387 20 8.43746 20H11.5625C11.8861 20 12.1484 19.7377 12.1484 19.4141V18.524C12.9788 18.3163 13.774 17.9869 14.508 17.5464L15.1375 18.1759C15.3664 18.4047 15.7373 18.4047 15.9662 18.1759L18.1759 15.9662C18.4047 15.7374 18.4047 15.3664 18.1759 15.1376L17.5464 14.5081C17.9869 13.7741 18.3163 12.9789 18.5239 12.1484H19.4141C19.7377 12.1484 20 11.8861 20 11.5625V8.4375C20 8.11391 19.7377 7.85156 19.4141 7.85156ZM10 16.0547C6.66145 16.0547 3.94531 13.3386 3.94531 10C3.94531 6.66145 6.66145 3.94531 10 3.94531C13.3386 3.94531 16.0547 6.66145 16.0547 10C16.0547 13.3386 13.3386 16.0547 10 16.0547Z" fill="#2364F2"/>
<path d="M10 5.11719C7.30762 5.11719 5.11719 7.30762 5.11719 10C5.11719 12.6924 7.30762 14.8828 10 14.8828C12.6924 14.8828 14.8828 12.6924 14.8828 10C14.8828 7.30762 12.6924 5.11719 10 5.11719ZM12.9002 8.75703L9.58566 12.0716C9.47125 12.186 9.32129 12.2432 9.17137 12.2432C9.02145 12.2432 8.87145 12.1861 8.75707 12.0716L7.0998 10.4143C6.87098 10.1855 6.87098 9.81453 7.0998 9.5857C7.32859 9.35687 7.69961 9.35687 7.92844 9.5857L9.17141 10.8286L12.0717 7.9284C12.3005 7.69957 12.6715 7.69961 12.9003 7.9284C13.1291 8.15723 13.1291 8.52824 12.9002 8.75703Z" fill="#2364F2"/>
</g>
<defs>
<clipPath id="clip0_1110_2333">
<rect width="20" height="20" fill="white"/>
</clipPath>
</defs>
</svg>
