<svg width="25" height="26" viewBox="0 0 25 26" fill="none" xmlns="http://www.w3.org/2000/svg">
<path d="M22.9173 7.79167V16.125H20.834V15.0833C20.834 14.5308 20.6145 14.0009 20.2238 13.6102C19.8331 13.2195 19.3032 13 18.7507 13C18.1981 13 17.6682 13.2195 17.2775 13.6102C16.8868 14.0009 16.6673 14.5308 16.6673 15.0833V16.125H15.6257C15.0731 16.125 14.5432 16.3445 14.1525 16.7352C13.7618 17.1259 13.5423 17.6558 13.5423 18.2083C13.5423 18.7609 13.7618 19.2908 14.1525 19.6815C14.5432 20.0722 15.0731 20.2917 15.6257 20.2917H6.25065C5.14558 20.2917 4.08577 19.8527 3.30437 19.0713C2.52297 18.2899 2.08398 17.2301 2.08398 16.125V7.79167C2.08398 6.6866 2.52297 5.62679 3.30437 4.84539C4.08577 4.06399 5.14558 3.625 6.25065 3.625H18.7507C19.8557 3.625 20.9155 4.06399 21.6969 4.84539C22.4783 5.62679 22.9173 6.6866 22.9173 7.79167Z" fill="#2364F2"/>
<path d="M18.7507 22.3751C18.4744 22.3751 18.2094 22.2653 18.0141 22.07C17.8187 21.8746 17.709 21.6097 17.709 21.3334V15.0834C17.709 14.8071 17.8187 14.5422 18.0141 14.3468C18.2094 14.1515 18.4744 14.0417 18.7507 14.0417C19.0269 14.0417 19.2919 14.1515 19.4872 14.3468C19.6826 14.5422 19.7923 14.8071 19.7923 15.0834V21.3334C19.7923 21.6097 19.6826 21.8746 19.4872 22.07C19.2919 22.2653 19.0269 22.3751 18.7507 22.3751Z" fill="#2364F2"/>
<path d="M21.8757 19.2501H15.6257C15.3494 19.2501 15.0844 19.1403 14.8891 18.945C14.6937 18.7496 14.584 18.4847 14.584 18.2084C14.584 17.9321 14.6937 17.6672 14.8891 17.4718C15.0844 17.2765 15.3494 17.1667 15.6257 17.1667H21.8757C22.1519 17.1667 22.4169 17.2765 22.6122 17.4718C22.8076 17.6672 22.9173 17.9321 22.9173 18.2084C22.9173 18.4847 22.8076 18.7496 22.6122 18.945C22.4169 19.1403 22.1519 19.2501 21.8757 19.2501Z" fill="#2364F2"/>
</svg>
